<?xml version="1.0" encoding="UTF-8" standalone="no"?>
<!-- Created with Inkscape (http://www.inkscape.org/) -->

<svg
   width="53.587017mm"
   height="12.586861mm"
   viewBox="0 0 53.587017 12.586861"
   version="1.1"
   id="svg1"
   xml:space="preserve"
   xmlns:inkscape="http://www.inkscape.org/namespaces/inkscape"
   xmlns:sodipodi="http://sodipodi.sourceforge.net/DTD/sodipodi-0.dtd"
   xmlns="http://www.w3.org/2000/svg"
   xmlns:svg="http://www.w3.org/2000/svg"><sodipodi:namedview
     id="namedview1"
     pagecolor="#ffffff"
     bordercolor="#000000"
     borderopacity="0.25"
     inkscape:showpageshadow="2"
     inkscape:pageopacity="0.0"
     inkscape:pagecheckerboard="0"
     inkscape:deskcolor="#d1d1d1"
     inkscape:document-units="mm"
     showguides="true"><sodipodi:guide
       position="12.746784,-50.959586"
       orientation="0,-1"
       id="guide7"
       inkscape:locked="false" /><sodipodi:guide
       position="-34.66668,-12.307307"
       orientation="1,0"
       id="guide8"
       inkscape:locked="false" /><sodipodi:guide
       position="18.158103,53.401562"
       orientation="0,-1"
       id="guide9"
       inkscape:locked="false" /><sodipodi:guide
       position="39.606833,-1.2337071"
       orientation="0,-1"
       id="guide10"
       inkscape:locked="false" /><inkscape:page
       x="8.8668155e-16"
       y="0"
       width="53.587013"
       height="12.586861"
       id="page2"
       margin="0"
       bleed="0" /></sodipodi:namedview><defs
     id="defs1" /><g
     inkscape:label="Camada 1"
     inkscape:groupmode="layer"
     id="layer1"
     transform="translate(-93.933505,-142.34135)"><g
       id="g9"
       transform="matrix(0.12021491,0,0,0.12021491,86.825389,130.15117)"
       inkscape:export-filename="text13.svg"
       inkscape:export-xdpi="24"
       inkscape:export-ydpi="24"><path
         style="fill:#0869ba;fill-opacity:1"
         d="m 83.112788,205.57904 c -1.567574,-0.77878 -4.130591,-3.36112 -5.794508,-5.83819 -3.605266,-5.36716 -8.540361,-14.89659 -11.328871,-21.8755 -2.377542,-5.95037 -5.328861,-16.31972 -6.418752,-22.55206 -0.527806,-3.01815 -0.593396,-7.1964 -0.141609,-9.02082 0.951771,-3.84349 3.399438,-6.33105 7.282739,-7.40145 1.798432,-0.49572 5.428713,-0.45609 8.101125,0.0885 2.519801,0.51343 5.596918,1.42077 7.489206,2.20832 4.83429,2.01198 11.419735,6.15912 15.683087,9.87631 4.918805,4.28868 7.822315,7.5174 10.289035,11.44146 1.25083,1.98983 3.42015,6.22369 3.42125,6.67725 5.3e-4,0.22162 -0.14262,0.26311 -0.90779,0.26311 -0.49963,0 -1.4299,0.10695 -2.06727,0.23766 -4.87862,1.00056 -8.769424,4.65734 -11.984721,11.26389 -1.524093,3.13158 -2.247009,5.02551 -4.36147,11.42637 -2.241994,6.78693 -3.665222,10.60104 -4.401287,11.79502 -1.215322,1.97138 -2.803179,2.4321 -4.860164,1.41018 z"
         id="path1"
         sodipodi:nodetypes="sssssscssssscsssss" /><path
         style="fill:#0869b9;fill-opacity:1"
         d="m 149.12392,178.14418 c 2.05084,-19.24766 -4.00698,-39.26879 -16.23673,-54.24533 -5.30373,-6.35692 -11.92095,-11.43649 -18.82701,-15.92917 9.71835,-5.72659 22.46855,-9.402321 33.04146,-3.74104 10.03211,5.58374 13.60488,17.87395 13.75847,28.66217 0.75913,14.46977 -3.57615,28.6804 -9.22777,41.83297 -0.44457,0.59246 -2.44624,5.28402 -2.50842,3.4204 z"
         id="path2"
         sodipodi:nodetypes="ccccccc" /><path
         style="display:inline;fill:#30bfef;fill-opacity:1"
         d="m 131.32157,205.7039 c -3.82858,-3.18159 -3.45769,-9.00455 -5.15016,-13.38629 -3.85655,-16.23189 -9.71075,-32.81584 -22.05316,-44.61163 -8.12365,-7.7076 -18.57007,-14.08256 -30.0173,-14.53469 -5.62289,-0.44961 -11.45213,2.2095 -14.26941,7.19218 -0.85072,-11.36622 0.60982,-24.33066 9.36528,-32.53123 7.79336,-7.03002 19.51194,-7.67618 28.90597,-3.74346 12.5242,4.79652 23.4588,13.48144 31.67005,24.01744 13.37916,17.57727 19.68461,41.60931 12.91801,63.05872 -2.00157,5.30597 -4.21837,11.3335 -9.30706,14.42028 -0.64608,0.2507 -1.39504,0.37987 -2.06222,0.11868 z"
         id="path2-4"
         sodipodi:nodetypes="ccccccccccc" /></g><path
       style="-inkscape-font-specification:'Arial Bold';fill:#ffffff"
       d="m 162.43513,858.86818 q 0,-10.17452 3.04328,-17.07866 2.27109,-5.08726 6.17738,-9.12981 3.95172,-4.04256 8.63018,-5.9957 6.22281,-2.63448 14.35334,-2.63448 14.71672,0 23.52858,9.12982 8.85729,9.12981 8.85729,25.39088 0,16.1248 -8.76644,25.25462 -8.76644,9.08439 -23.43774,9.08439 -14.85298,0 -23.61943,-9.03897 -8.76644,-9.0844 -8.76644,-24.98209 z m 13.85371,-0.45422 q 0,11.31008 5.22352,17.16951 5.22353,5.81401 13.26322,5.81401 8.03969,0 13.17237,-5.76859 5.17811,-5.81401 5.17811,-17.39661 0,-11.44634 -5.04184,-17.07867 -4.99642,-5.63232 -13.30864,-5.63232 -8.31222,0 -13.39948,5.72317 -5.08726,5.67775 -5.08726,17.1695 z m 105.37897,33.33973 h -11.85513 v -7.08583 q -2.95243,4.1334 -6.99499,6.17739 -3.99713,1.99857 -8.08511,1.99857 -8.31222,0 -14.2625,-6.67703 -5.90486,-6.72245 -5.90486,-18.71385 0,-12.26394 5.7686,-18.62301 5.76859,-6.4045 14.58045,-6.4045 8.08511,0 13.98997,6.72245 v -23.9828 h 12.76357 z m -34.06648,-25.16377 q 0,7.72174 2.13483,11.17381 3.0887,4.99641 8.63018,4.99641 4.40593,0 7.49462,-3.7246 3.0887,-3.77002 3.0887,-11.21923 0,-8.31222 -2.99785,-11.94598 -2.99785,-3.67918 -7.67632,-3.67918 -4.54219,0 -7.63089,3.63376 -3.04327,3.58834 -3.04327,10.76501 z m 43.69593,0.36338 q 0,-6.35908 3.13412,-12.30936 3.13412,-5.95028 8.85728,-9.08439 5.7686,-3.13412 12.85442,-3.13412 10.9467,0 17.94168,7.13125 6.99499,7.08583 6.99499,17.94168 0,10.94669 -7.08583,18.16879 -7.04041,7.17667 -17.75999,7.17667 -6.63161,0 -12.67273,-2.99785 -5.9957,-2.99785 -9.12982,-8.76644 -3.13412,-5.81401 -3.13412,-14.12623 z m 13.08153,0.68133 q 0,7.17667 3.40665,10.99211 3.40665,3.81545 8.40307,3.81545 4.99641,0 8.35764,-3.81545 3.40665,-3.81544 3.40665,-11.08296 0,-7.08583 -3.40665,-10.90127 -3.36123,-3.81545 -8.35764,-3.81545 -4.99642,0 -8.40307,3.81545 -3.40665,3.81544 -3.40665,10.99212 z m 90.57142,24.11906 h -12.76357 v -24.61871 q 0,-7.81258 -0.8176,-10.08367 -0.8176,-2.31653 -2.6799,-3.58834 -1.81688,-1.27182 -4.40593,-1.27182 -3.3158,0 -5.95028,1.81688 -2.63447,1.81688 -3.63375,4.81473 -0.95387,2.99785 -0.95387,11.08296 v 21.84797 h -12.76357 v -48.23813 h 11.85513 v 7.08583 q 6.31366,-8.17596 15.8977,-8.17596 4.22424,0 7.72173,1.54435 3.49749,1.49892 5.26895,3.86086 1.81688,2.36195 2.49821,5.3598 0.72675,2.99785 0.72675,8.58475 z m 35.06577,-48.23813 v 10.17452 h -8.72102 v 19.4406 q 0,5.90486 0.22711,6.90414 0.27253,0.95387 1.13555,1.58977 0.90844,0.63591 2.18025,0.63591 1.77146,0 5.13268,-1.22639 l 1.09013,9.90199 q -4.45135,1.90772 -10.08368,1.90772 -3.45207,0 -6.22281,-1.13555 -2.77074,-1.18097 -4.08797,-2.99785 -1.27182,-1.8623 -1.77146,-4.99642 -0.4088,-2.22567 -0.4088,-8.99355 v -21.03037 h -5.85943 v -10.17452 h 5.85943 v -9.58404 l 12.809,-7.4492 v 17.03324 z m 5.90485,23.43774 q 0,-6.35908 3.13412,-12.30936 3.13411,-5.95028 8.85728,-9.08439 5.76859,-3.13412 12.85442,-3.13412 10.94669,0 17.94168,7.13125 6.99498,7.08583 6.99498,17.94168 0,10.94669 -7.08583,18.16879 -7.0404,7.17667 -17.75999,7.17667 -6.63161,0 -12.67273,-2.99785 -5.9957,-2.99785 -9.12981,-8.76644 -3.13412,-5.81401 -3.13412,-14.12623 z m 13.08153,0.68133 q 0,7.17667 3.40665,10.99211 3.40664,3.81545 8.40306,3.81545 4.99642,0 8.35764,-3.81545 3.40665,-3.81544 3.40665,-11.08296 0,-7.08583 -3.40665,-10.90127 -3.36122,-3.81545 -8.35764,-3.81545 -4.99642,0 -8.40306,3.81545 -3.40665,3.81544 -3.40665,10.99212 z m 43.37797,2.45278 13.08153,-1.27181 q 1.18097,6.58618 4.76931,9.67488 3.63375,3.08869 9.76572,3.08869 6.49534,0 9.76572,-2.72532 3.31581,-2.77074 3.31581,-6.44992 0,-2.36194 -1.40808,-3.99713 -1.36266,-1.68061 -4.81473,-2.90701 -2.36195,-0.81759 -10.76501,-2.907 -10.81043,-2.6799 -15.17094,-6.58619 -6.13197,-5.49606 -6.13197,-13.39948 0,-5.08726 2.86159,-9.49319 2.90701,-4.45136 8.31222,-6.76788 5.45064,-2.31652 13.12695,-2.31652 12.53646,0 18.85012,5.49606 6.35907,5.49606 6.67703,14.6713 l -13.44491,0.59048 q -0.86301,-5.13268 -3.7246,-7.35836 -2.81616,-2.2711 -8.49391,-2.2711 -5.85943,0 -9.17523,2.40737 -2.13484,1.54435 -2.13484,4.1334 0,2.36194 1.99857,4.04255 2.54363,2.13484 12.35478,4.45136 9.81114,2.31652 14.48961,4.81473 4.72388,2.45278 7.35836,6.76787 2.67989,4.26967 2.67989,10.58332 0,5.72317 -3.17954,10.71959 -3.17953,4.99641 -8.99355,7.4492 -5.81401,2.40736 -14.48961,2.40736 -12.6273,0 -19.39518,-5.81401 -6.76787,-5.85943 -8.08511,-17.03324 z m 59.3211,-26.57185 h 13.58117 l 11.53718,34.24817 11.26465,-34.24817 h 13.21779 l -17.03324,46.42125 -3.04327,8.40307 q -1.68061,4.22424 -3.22496,6.44992 -1.49892,2.22568 -3.49749,3.58833 -1.95315,1.40809 -4.86015,2.18026 -2.86159,0.77217 -6.49534,0.77217 -3.67918,0 -7.2221,-0.77217 l -1.13555,-9.99283 q 2.99785,0.59048 5.40522,0.59048 4.45135,0 6.58618,-2.63447 2.13484,-2.58906 3.27039,-6.63161 z m 53.27997,34.47527 12.809,-1.95314 q 0.81759,3.7246 3.3158,5.67775 2.49821,1.90772 6.99499,1.90772 4.95099,0 7.4492,-1.81688 1.68061,-1.27181 1.68061,-3.40665 0,-1.4535 -0.90844,-2.40736 -0.95386,-0.90844 -4.26966,-1.68061 -15.44347,-3.40665 -19.57687,-6.22282 -5.72317,-3.90628 -5.72317,-10.85585 0,-6.26823 4.95099,-10.53789 4.951,-4.26967 15.35263,-4.26967 9.90199,0 14.71672,3.22496 4.81473,3.22496 6.63161,9.53861 l -12.03682,2.22568 q -0.77218,-2.81616 -2.95243,-4.31509 -2.13484,-1.49892 -6.13197,-1.49892 -5.04184,0 -7.22209,1.40808 -1.45351,0.99928 -1.45351,2.58905 0,1.36266 1.27182,2.31652 1.72603,1.27182 11.90056,3.58834 10.21994,2.31652 14.2625,5.67775 3.99713,3.40664 3.99713,9.49319 0,6.63161 -5.54148,11.40091 -5.54148,4.76931 -16.39733,4.76931 -9.85657,0 -15.62516,-3.99713 -5.72317,-3.99714 -7.49463,-10.85586 z"
       id="text9"
       transform="matrix(0.08294124,0,0,0.07787886,93.605392,82.939624)"
       aria-label="OdontoSys"
       inkscape:export-filename="text9.svg"
       inkscape:export-xdpi="24"
       inkscape:export-ydpi="24" /></g></svg>
