<?xml version="1.0" encoding="UTF-8" standalone="no"?>
<!-- Created with Inkscape (http://www.inkscape.org/) -->

<svg
   width="184.11198mm"
   height="45.303001mm"
   viewBox="0 0 184.11198 45.303001"
   version="1.1"
   id="svg1"
   xml:space="preserve"
   xmlns:inkscape="http://www.inkscape.org/namespaces/inkscape"
   xmlns:sodipodi="http://sodipodi.sourceforge.net/DTD/sodipodi-0.dtd"
   xmlns="http://www.w3.org/2000/svg"
   xmlns:svg="http://www.w3.org/2000/svg"><sodipodi:namedview
     id="namedview1"
     pagecolor="#ffffff"
     bordercolor="#000000"
     borderopacity="0.25"
     inkscape:showpageshadow="2"
     inkscape:pageopacity="0.0"
     inkscape:pagecheckerboard="0"
     inkscape:deskcolor="#d1d1d1"
     inkscape:document-units="mm"
     showguides="true"><sodipodi:guide
       position="87.087889,-0.14598734"
       orientation="0,-1"
       id="guide7"
       inkscape:locked="false" /><sodipodi:guide
       position="39.674425,38.506292"
       orientation="1,0"
       id="guide8"
       inkscape:locked="false" /><sodipodi:guide
       position="92.499209,104.21516"
       orientation="0,-1"
       id="guide9"
       inkscape:locked="false" /><inkscape:page
       x="0"
       y="0"
       width="184.11198"
       height="45.303001"
       id="page2"
       margin="0"
       bleed="0" /></sodipodi:namedview><defs
     id="defs1"><rect
       x="158.39235"
       y="807.1123"
       width="576.87238"
       height="137.73248"
       id="rect9" /></defs><g
     inkscape:label="Camada 1"
     inkscape:groupmode="layer"
     id="layer1"
     transform="translate(-19.5924,-160.43881)"><g
       id="g9"
       transform="matrix(0.43268104,0,0,0.43268104,-5.9913394,116.56355)"><path
         style="fill:#0869ba;fill-opacity:1"
         d="m 83.112788,205.57904 c -1.567574,-0.77878 -4.130591,-3.36112 -5.794508,-5.83819 -3.605266,-5.36716 -8.540361,-14.89659 -11.328871,-21.8755 -2.377542,-5.95037 -5.328861,-16.31972 -6.418752,-22.55206 -0.527806,-3.01815 -0.593396,-7.1964 -0.141609,-9.02082 0.951771,-3.84349 3.399438,-6.33105 7.282739,-7.40145 1.798432,-0.49572 5.428713,-0.45609 8.101125,0.0885 2.519801,0.51343 5.596918,1.42077 7.489206,2.20832 4.83429,2.01198 11.419735,6.15912 15.683087,9.87631 4.918805,4.28868 7.822315,7.5174 10.289035,11.44146 1.25083,1.98983 3.42015,6.22369 3.42125,6.67725 5.3e-4,0.22162 -0.14262,0.26311 -0.90779,0.26311 -0.49963,0 -1.4299,0.10695 -2.06727,0.23766 -4.87862,1.00056 -8.769424,4.65734 -11.984721,11.26389 -1.524093,3.13158 -2.247009,5.02551 -4.36147,11.42637 -2.241994,6.78693 -3.665222,10.60104 -4.401287,11.79502 -1.215322,1.97138 -2.803179,2.4321 -4.860164,1.41018 z"
         id="path1"
         sodipodi:nodetypes="sssssscssssscsssss" /><path
         style="fill:#0869b9;fill-opacity:1"
         d="m 149.12392,178.14418 c 2.05084,-19.24766 -4.00698,-39.26879 -16.23673,-54.24533 -5.30373,-6.35692 -11.92095,-11.43649 -18.82701,-15.92917 9.71835,-5.72659 22.46855,-9.402321 33.04146,-3.74104 10.03211,5.58374 13.60488,17.87395 13.75847,28.66217 0.75913,14.46977 -3.57615,28.6804 -9.22777,41.83297 -0.44457,0.59246 -2.44624,5.28402 -2.50842,3.4204 z"
         id="path2"
         sodipodi:nodetypes="ccccccc" /><path
         style="display:inline;fill:#30bfef;fill-opacity:1"
         d="m 131.32157,205.7039 c -3.82858,-3.18159 -3.45769,-9.00455 -5.15016,-13.38629 -3.85655,-16.23189 -9.71075,-32.81584 -22.05316,-44.61163 -8.12365,-7.7076 -18.57007,-14.08256 -30.0173,-14.53469 -5.62289,-0.44961 -11.45213,2.2095 -14.26941,7.19218 -0.85072,-11.36622 0.60982,-24.33066 9.36528,-32.53123 7.79336,-7.03002 19.51194,-7.67618 28.90597,-3.74346 12.5242,4.79652 23.4588,13.48144 31.67005,24.01744 13.37916,17.57727 19.68461,41.60931 12.91801,63.05872 -2.00157,5.30597 -4.21837,11.3335 -9.30706,14.42028 -0.64608,0.2507 -1.39504,0.37987 -2.06222,0.11868 z"
         id="path2-4"
         sodipodi:nodetypes="ccccccccccc" /></g><text
       xml:space="preserve"
       transform="matrix(0.28178208,0,0,0.26458333,20.534767,-43.365644)"
       id="text9"
       style="font-size:93.0242px;text-align:start;writing-mode:lr-tb;direction:ltr;white-space:pre;shape-inside:url(#rect9);fill:#0869ba;fill-opacity:1"
       inkscape:export-filename="text9.svg"
       inkscape:export-xdpi="24"
       inkscape:export-ydpi="24"><tspan
         x="158.39258"
         y="891.75369"
         id="tspan2"><tspan
           style="font-weight:bold;font-family:Arial;-inkscape-font-specification:'Arial Bold';fill:#000000"
           id="tspan1">OdontoSys</tspan></tspan></text></g></svg>
